<?xml version="1.0" standalone="no"?>
<!DOCTYPE svg PUBLIC "-//W3C//DTD SVG 1.1//EN" "http://www.w3.org/Graphics/SVG/1.1/DTD/svg11.dtd" >
<svg xmlns="http://www.w3.org/2000/svg" xmlns:xlink="http://www.w3.org/1999/xlink" version="1.1">
<metadata>
Created by FontForge 20200427 at Sat Mar  3 20:50:45 2007
 By www
CybaPee Creations, 1999
</metadata>
<defs>
<font id="Oetztype" horiz-adv-x="500" >
  <font-face 
    font-family="Oetztype"
    font-weight="400"
    font-stretch="normal"
    units-per-em="1000"
    panose-1="2 0 5 5 2 0 0 2 0 4"
    ascent="800"
    descent="-200"
    x-height="500"
    cap-height="750"
    bbox="-1 -344 1005 981"
    underline-thickness="50"
    underline-position="-125"
    unicode-range="U+0020-00FC"
  />
<missing-glyph 
d="M63 0v901h375v-901h-375zM125 63h250v776h-250v-776z" />
    <glyph glyph-name=".notdef" 
d="M63 0v901h375v-901h-375zM125 63h250v776h-250v-776z" />
    <glyph glyph-name=".null" horiz-adv-x="0" 
 />
    <glyph glyph-name="nonmarkingreturn" 
 />
    <glyph glyph-name="space" unicode=" " 
 />
    <glyph glyph-name="exclam" unicode="!" horiz-adv-x="362" 
d="M81 89q0 -76 58 -86q19 -4 45 -4h21q7 0 15 13q9 17 26 50l15 30q7 14 9 20l1 3v4q0 16 -47 26q-33 6 -59 6h-17q-11 -1 -15.5 -2t-24.5 -21q-9 -9 -26 -28v-4q-1 -5 -1 -7zM107 237q0 -6 13 -25h12l35 7q30 6 28 6q5 0 20 9q7 5 17 16l88 362q0 2 1 7v6q0 20 -60 56
q-56 33 -77 33q-38 0 -68 -20q-34 -23 -34 -59v-35l3 -42l16 -215q1 -25 6 -106z" />
    <glyph glyph-name="quotedbl" unicode="&#x22;" horiz-adv-x="430" 
d="M255 744v-278q0 -4 10 -13.5t15 -11.5h5q5 -1 7 -1h7q4 1 6 1l34 124q17 65 17 126v13q-1 8 -1 12q-65 28 -100 28zM92 756v-277q0 -3 10 -13q5 -5 15 -12l5 -1q5 -1 8 -1q2 0 6 1t6 1q31 107 35 123q17 72 17 127q0 4 -1 12.5t-1 12.5q-63 27 -100 27z" />
    <glyph glyph-name="dollar" unicode="$" horiz-adv-x="671" 
d="M219 69q-1 -11 0 -23q4 -44 37 -46h8q6 0 16 -1h17h26h17q11 1 17 1h12q-1 4 0 15q2 23 8 46q2 10 4 14l6 4q20 11 44 21q38 12 111 41q18 9 27 21q0 2 10 27l8 20q4 10 7 16q5 14 13 38l37 112q0 5 1 16t1 16q0 41 -38.5 86.5t-78.5 45.5q-23 0 -66 -6t-66 -6
q0 10 -1 21q-4 38 23 52l122 61l28 14l12 12q0 12 2 34.5t3 31.5v16h-180q3 52 -37 56q-11 1 -95 5h-12v-68q-31 0 -75 -8l-18 -4q-9 -3 -28 -30q-10 -14 -22 -33q-15 -23 -41 -70q-4 -7 -9 -17q-9 -20 -32 -63l-6 -12v-6q-1 -5 -1 -7v-6q1 -4 1 -6q60 -125 100 -188h10
q6 -1 9 -1t10 1h9q2 0 12 6.5t13 6.5q4 1 18.5 -1.5t18.5 -2.5v-77h-137q-1 0 -11 -22q-6 -14 -14 -35q-11 -29 -20.5 -57.5t-9.5 -60.5h180zM489 414q31 0 31 -27v-6q-1 -4 -1.5 -6.5t-5.5 -12.5l-11 -22q-7 -13 -21 -40q-1 -2 -25 -38l-12 -12q-12 0 -32 -2q-23 -2 -31 -2
q-12 -1 -16 -1q0 113 65 154q23 15 59 15zM144 512q50 75 100 75v-100q0 -13 -25 -13q-53 0 -75 38z" />
    <glyph glyph-name="percent" unicode="%" horiz-adv-x="561" 
d="M441 739q-31 0 -60 -35q-23 -27 -41 -63q-3 -3 -5 -7v1l-13 -26q-14 -29 -43 -88q-7 -13 -16 -32l-95 -218q-12 -30 -37 -90q-12 -27 -21 -50l-13 -30q-16 -38 -16 -92q48 0 71 53l1 3l84 146l36 73q14 27 78 137l76 132q38 67 73 147q1 5 1 7q0 32 -55 32h-5zM238 115
q0 -29 28 -51q19 -17 58 -50q6 -6 18 -15h6h3q4 0 9 1q29 14 57 28q33 16 55 33q53 43 53 96q0 39 -25 83q-29 51 -65 51q-35 0 -74 -18l-68 -32q-8 -3 -19 -20q-3 -8 -11 -22q-7 -21 -20 -62l-5 -13v-9zM35 622q0 -2 1 -6v-7v-7q1 -8 19 -58q12 -37 22 -60h23q43 12 89 30
q14 5 18 7l-2 -1q8 5 20 17q9 11 30 43l19 27q9 13 12 19v8q0 1 1 4v3q0 24 -19 35q-33 19 -108 54q-14 7 -17 7h-23q-3 0 -30 -25q-14 -12 -39 -38h1q-17 -18 -17 -52zM321 120q0 33 30 65t60 32h2q14 -10 43 -29q8 -6 9 -7v-31l-68 -69l-5 1h-7q-20 0 -40 9q-24 11 -24 29
zM95 622v12q34 32 66 32q39 0 52 -50q-32 -40 -50 -47h-1q-4 0 -11 -1t-10 -1q-46 0 -46 55z" />
    <glyph glyph-name="ampersand" unicode="&#x26;" horiz-adv-x="730" 
d="M47 66l276 -74l149 95q2 0 6 1t6 1q24 0 56.5 -32.5t57.5 -32.5q3 0 7 1h4l100 100v12q0 2 -39 26q-25 17 -75 44q-25 11 -25 30q0 3 1 8l1 5l30 51q5 9 7 11q14 25 42 82q6 13 8 18v13q-17 51 -44 51q-15 0 -46 -39q-23 -36 -74 -101q-11 -12 -17 -12q-1 0 -6 2t-12 10
l-16 15q-10 10 -22 24l-1 5q-1 4 -1 6q0 30 70 69.5t70 69.5q0 14 -26 50q-18 25 -61 80l-38 49q-17 22 -36 45q-3 1 -14 1h-13l-60 -10q-36 -6 -70 -12l-58 -10q-24 -5 -25 -6l-122 -176l97 -111l1 -4v-7q0 -23 -44 -43t-44 -46v-259zM158 192q0 79 37 110q15 12 39 12
q21 0 42 -18q16 -17 33 -34q33 -30 67 -65q8 -9 8 -10v-12l-75 -75h-4q-5 -1 -7 -1q-27 0 -80 31q-60 34 -60 62zM232 581v11q0 6 1 17t1 15t5 8.5t8 4.5h137q5 0 13 -12q5 -19 11 -51q1 -9 1 -12q0 -11 -42 -49.5t-52 -38.5q-1 0 -6 1l-75 75q-2 2 -2 31z" />
    <glyph glyph-name="quotesingle" unicode="'" horiz-adv-x="247" 
d="M95 762v-277q0 -4 10 -13.5t15 -11.5h5q5 -1 7 -1h7q4 1 6 1l34 124q17 65 17 126v13q-1 8 -1 12q-63 27 -100 27z" />
    <glyph glyph-name="parenleft" unicode="(" horiz-adv-x="353" 
d="M14 378q0 -4 1 -11t1 -11l112 -338l16 -16l12 -12q5 -5 10 -9q62 -49 70 -54q41 -25 83 -25q0 41 -16 66q-31 49 -90 135q-12 17 -35 53q-19 33 -33 64q-4 9 -4 11v412q0 27 46 87q14 18 42.5 53.5t42.5 53.5q46 60 46 88q0 32 -41 32h-7l-4 -1q-3 -3 -19 -24
q-8 -10 -19 -26q-1 -1 -44 -50q-15 -16 -43 -50q-11 -14 -41 -61q-7 -9 -9 -14q-16 -31 -25 -80q-6 -41 -13 -83q-2 -13 -24 -94q-15 -57 -15 -96z" />
    <glyph glyph-name="parenright" unicode=")" horiz-adv-x="299" 
d="M34 -67q0 -26 20 -26h5l2 1l25 25q9 11 29 36l83 106q19 24 24 33t14 25q5 45 14 135l36 352q-7 11 -16 27l-12 20q-7 11 -10 16q-12 17 -22 34l-29 44q-16 23 -32 48l-54 81q-10 14 -13 18q-9 10 -28 30q-6 5 -9 7l-2 1q-3 1 -5 1q-20 0 -20 -33q0 -3 1 -9.5t1 -9.5
q4 -9 9.5 -21t16 -29.5t60.5 -110.5q18 -35 29 -56l10 -20v-450q0 -12 -13 -38l-90 -180q-16 -32 -22 -45q0 -2 -1 -6t-1 -6z" />
    <glyph glyph-name="asterisk" unicode="*" horiz-adv-x="463" 
d="M50 389v-10q1 -6 1 -9q4 -11 22.5 -38.5t27.5 -36.5h3q2 -1 3 -1q22 0 66.5 76.5t64.5 76.5q14 0 31 -53l13 -39q10 -26 19 -35h2q2 -1 3 -1q2 0 5 1h2q19 6 25 12q28 20 56 44l7 6v25l-88 90q-1 2 -1 4q0 16 29 27q8 3 54 29q14 8 26 15l17 10q0 3 1 9.5t1 9.5
q0 18 -8 48q-10 35 -25 35q-1 0 -3 -1l-3 -1l-125 -111v175q-30 0 -61 -11q-40 -14 -40 -39v-7q1 -5 1 -7q2 -6 12 -50q4 -17 8 -31l5 -19v-12q-32 15 -100 87q-1 0 -3 1t-3 1q-2 0 -4 -1l-3 -1q-8 -4 -11.5 -11t-10.5 -19l-16 -27q-9 -14 -15 -26l-9 -17v-2q-1 -3 -1 -4
t1 -6q12 -25 69 -31q26 -4 39 -8q23 -8 29 -24l1 -2q1 -3 1 -4t-1 -3t-1 -3q-58 -27 -112 -63v-9q-1 -6 -1 -9z" />
    <glyph glyph-name="plus" unicode="+" horiz-adv-x="340" 
d="M111 182q0 -60 88 -56q21 1 37 1v80q4 1 15 5l45 15q10 3 15 5q12 12 12 13q4 29 5 46v10h-117q-3 38 -15 100q-16 36 -79 36v-136h-81q-3 0 -7.5 -13t-5.5 -18q0 -13 -2 -35q-2 -26 -2 -35q-1 -13 -1 -18h93z" />
    <glyph glyph-name="comma" unicode="," horiz-adv-x="377" 
d="M77 -205q0 -1 2 -6q9 -19 25 -25l3 -1q2 -1 3 -1t4 1l2 1l200 200q13 13 20 62q6 40 6 68v19l-1 13q-3 9 -21 36q-10 15 -29 39q-1 1 -25 13q3 0 -37 6q-17 2 -50 6h-8q-23 0 -58.5 -34t-35.5 -57q0 -16 14 -72q15 -62 25 -62h100l-138 -203q-1 -2 -1 -3z" />
    <glyph glyph-name="hyphen" unicode="-" horiz-adv-x="392" 
d="M358 239h-293q-7 0 -12 -25q-2 -12 -3 -44l-1 -27q-1 -13 -1 -18h9q5 1 8 1q16 2 50 8l69 11q36 5 106 19l42 10q6 1 8 2q13 4 13 12.5t2.5 25.5t2.5 25z" />
    <glyph glyph-name="hyphen" unicode="&#x2010;" horiz-adv-x="392" 
d="M358 239h-293q-7 0 -12 -25q-2 -12 -3 -44l-1 -27q-1 -13 -1 -18h9q5 1 8 1q16 2 50 8l69 11q36 5 106 19l42 10q6 1 8 2q13 4 13 12.5t2.5 25.5t2.5 25z" />
    <glyph glyph-name="period" unicode="." horiz-adv-x="359" 
d="M72 57q31 -40 63 -56q12 -7 24 -7q23 0 51 13q57 26 74 58q15 29 15 97q0 4 -1 12l-1 8l-102 76q-3 1 -4 1t-3 -1l-3 -1q-6 -2 -20 -9l-30 -15q-17 -9 -50 -26q-14 -45 -14 -78v-37q0 -4 1 -13v-13v-9z" />
    <glyph glyph-name="slash" unicode="/" horiz-adv-x="425" 
d="M372 726q-29 0 -59 -37q-21 -26 -41 -64q-29 -55 -59 -116q-6 -14 -15 -33.5t-26 -56.5l-38 -87q-9 -19 -25 -57q0 -2 -2 -5l-4 -8l-6 -12q-33 -71 -62 -144l-13 -31q-15 -35 -15 -79q19 0 33 19q9 17 19 35q6 12 44 75l28 47q13 22 16 28q7 13 19 37q7 13 18 38l124 210
q74 125 114 215l1 3v3q0 13 -21 18q-9 2 -18 2h-12z" />
    <glyph glyph-name="zero" unicode="0" horiz-adv-x="734" 
d="M28 275q23 -36 44 -70l85 -135q21 -34 46 -70h38q1 0 35 3l51 5l161 14q20 2 28 3q1 0 37 6q13 2 38 6q4 8 12 25q7 23 19 69l12 44q1 6 7 25q23 78 49 161q9 28 13 39q0 4 1 12.5t1 12.5q0 24 -6 35q-1 3 -21 27q-30 34 -89 101q-27 30 -81 92l-30 32q-36 39 -62 39h-6
q-5 -1 -7 -1q-11 -3 -37 -12l-113 -38q-27 -9 -37 -13q-6 -1 -27 -12q-8 -5 -23 -13q-6 -6 -13 -25l-49 -135q-14 -39 -27 -77l-25 -68q-24 -67 -24 -70v-12zM227 280q0 53 18 124q16 60 33 121l7 7q4 4 6 5h12q64 -18 73 -21q43 -15 69 -32q58 -39 58 -128v-6
q-11 -26 -87 -163q-7 -19 -22 -55q-4 -8 -8 -8q-2 0 -8 1l-17 11q-7 5 -20 14l-6 6q-5 5 -7 6q-22 22 -71 62q-10 7 -16 13q-16 14 -14 26v17z" />
    <glyph glyph-name="one" unicode="1" horiz-adv-x="393" 
d="M94 25q47 -9 150 -21q26 -3 37 -4q4 0 13 -1l38 -2h12v768q-23 0 -75 -15q-8 -2 -45 -15l-180 -60q-10 -3 -23 -9q-3 -3 -3 -7v-13q0 -23 4 -39l9 -45q1 -6 3 -12l4 -14q2 -7 6 -17h110l2 -7q2 -7 0 -12q-6 -16 -12 -25l-34 -198q-17 -101 -17 -202v-10q0 -5 1 -15v-15
v-10z" />
    <glyph glyph-name="two" unicode="2" horiz-adv-x="574" 
d="M324 537q-5 -23 -21 -52q-14 -24 -29 -48l-88 -155l-87 -157q-4 -6 -12 -23l-30 -60q-7 -13 -8 -17q-5 -7 -5 -25h455q6 0 12 12q16 48 16 145v43h-28l-188 -63h-10q0 2 -1 6.5t-1 6.5q4 17 12 25l213 212q12 12 12 38q0 40 -34 117q-18 40 -53 120q-2 5 -7 16l-15 38
q-3 7 -3 9q-7 12 -24 12h-14q-25 0 -125 -10q-20 -2 -25 -2q-8 -1 -20 -3l-46 -7q-9 -2 -9 -3l-125 -125v-8q-1 -8 -1 -13q0 -53 26 -154q4 -7 13 -12h3q2 -1 3 -1h3q2 1 3 1q26 16 56 35l60 37q68 43 122 65z" />
    <glyph glyph-name="three" unicode="3" horiz-adv-x="482" 
d="M62 127q0 -25 17 -72q20 -55 40 -55h7l275 87q9 9 12 26.5t29 132.5l9 41v7q0 12 -23 27q-15 10 -27 16q-8 5 -40 31q-7 5 -10 7q20 12 39 48q7 17 23 52l9 21l12 28q5 13 17 38q0 2 1 7v6q0 19 -26 50l-72 84q-12 13 -16 16q-14 14 -36 14h-39q-23 0 -42 -1q-4 -1 -8 -1
q-64 -4 -142 -20q-18 -4 -20 -5l-13 -12v-179q35 0 103 15t103 15h16q11 -1 16 -1q-40 -36 -135 -143q-22 -24 -40 -45q0 -1 -1 -3t-1 -3q0 -16 39 -39q17 -10 50 -30q16 -11 40 -29q7 -6 10 -8q-44 -7 -107 -43q-69 -40 -69 -80z" />
    <glyph glyph-name="four" unicode="4" horiz-adv-x="691" 
d="M299 196q0 -33 -6 -98t-6 -98h259v175q5 1 55 20q3 1 13 5q25 10 25.5 12t2.5 7l7 30q2 10 3 13l10 57q5 27 5 56h-128v312h-148l-39 -312q0 -3 -5 -8t-8 -5q-14 0 -36 2l-21 2q-11 1 -15 1q0 62 13 185t13 185h-16q-3 0 -38 -3l-100 -9l-25 -25l-87 -488v-52
q19 0 24.5 1.5t21.5 4.5l123 24q18 3 56 10q9 0 24.5 -2t22.5 -2z" />
    <glyph glyph-name="five" unicode="5" horiz-adv-x="608" 
d="M38 112q0 -28 33.5 -70t64.5 -42q104 0 134 2q76 4 132 23q2 1 6 5l7 7q11 16 30 40q2 3 7 10q13 17 26 37l35 50q18 25 52 76q13 20 13 37v7q-1 4 -2 6.5t-68 99.5l-18 25q-10 11 -31 32q-5 4 -7 5h-10q-25 0 -73 -6.5t-73 -6.5h-22q-15 1 -22 1q-14 23 -14 62
q0 4 1 12.5t1 12.5q36 8 107 25l105 25q25 9 75 25q13 9 13 13q0 -5 6 37q2 17 6 50v13q-8 12 -12 12h-438q-1 0 -6 -14q-6 -18 -6 -23q-6 -32 -20 -143l-7 -60q-4 -29 -11 -85v-5v-9q-1 -7 -1 -10v-33q0 -12 14 -18l33 -11l42 -14q5 -2 35 -10l105 -30q25 -7 35 -10
q-86 -112 -275 -137q0 -2 -1 -6.5t-1 -6.5z" />
    <glyph glyph-name="six" unicode="6" horiz-adv-x="640" 
d="M29 376q0 -86 27 -239q0 -2 6 -20q2 -8 6 -17q10 -5 25 -13q25 -8 72 -30q13 -6 16 -7q34 -16 67 -32q42 -19 71 -19h7l5 1q18 6 68 28q7 3 20.5 10t29.5 15l46 23q24 12 45 22l28 14q26 13 38 25l1 9v13q0 25 -19 111q-14 62 -38 142q-22 69 -32 69h-200q22 12 45 27
l43 29q39 26 82 56l48 34q23 16 32 23q0 2 1 6v6q0 13 -32 56q-35 44 -49 44h-7q-1 0 -19 -6l-12 -4q-6 -2 -7 -2q-35 -11 -106 -31l-67 -20q-19 -5 -39 -12q-46 -15 -74 -53q-1 -1 -51 -84l-40 -60q-23 -36 -31 -65q-6 -21 -6 -49zM181 331q0 18 47 36q4 2 65 20
q7 -6 23 -22l90 -90l12 -18q2 -3 13 -20q2 -2 2 -5q-33 0 -89 -29t-88 -29h-13q-8 1 -12 1l-25 75l-25 75v6z" />
    <glyph glyph-name="seven" unicode="7" horiz-adv-x="547" 
d="M274 525q-15 -25 -44 -75l-26 -45q-9 -15 -17 -30q-15 -28 -24 -73q-7 -39 -14 -77q-13 -56 -27 -112q-14 -65 -14 -113h179q11 0 39 65q12 28 36 85l44 109q14 37 31 78l31 77q15 37 27 67l17 44q12 29 12 50v12q-10 41 -32 123l-5 15h-450v-241q38 0 109.5 20.5
t108.5 20.5h19z" />
    <glyph glyph-name="eight" unicode="8" horiz-adv-x="693" 
d="M122 25q14 -1 44 -3l288 -19q44 -3 43 -3h37q7 0 13 12l50 100q10 24 31 72q5 13 6 16q8 13 22 41q3 7 3 9.5t1 9t1 9.5t-1 9t-1 9q-27 32 -69 80q-13 14 -17.5 21.5t-13.5 11.5q-7 11 -12 25v6q0 1 38.5 60.5t38.5 98.5q0 20 -2 22l-150 150h-13q-45 -5 -134 -13
q-35 -3 -103 -12q-5 0 -34 -6q-11 -2 -29 -6q-7 -4 -12 -13l-75 -200q-3 -6 -3 -36q0 -24 21.5 -61.5t21.5 -60.5q0 -14 -3 -17l-75 -75v-4q-1 -4 -1 -6q0 -37 30 -122q30 -88 59 -105zM234 200q0 5 -1 15.5t-1 15.5q0 69 106 79q26 2 48 2q25 0 45 -48q17 -42 17 -73
q0 -21 -26.5 -37.5t-49.5 -16.5q-2 0 -17 5l-12 4q-6 2 -9 4zM246 549q-2 21 13 26q40 10 121 30l29 7q4 3 32 3q0 -31 -20 -77q-15 -33 -37 -63l-4 -3q-5 -4 -11 -8l-12 -8q-3 -2 -10 -6q-20 -12 -41 -21q-7 -3 -9 -4h-2q-3 -1 -4 -1q-30 0 -40 46q-2 26 -5 79z" />
    <glyph glyph-name="nine" unicode="9" horiz-adv-x="670" 
d="M175 30q0 -13 63 -23q48 -8 79 -8q25 0 47 17q18 17 37 34q29 26 92 82q13 11 39 35l26 26q7 7 21.5 22t21.5 22q40 187 40 284v11q0 10 -1 25l-1 5l-175 175q-14 14 -32 14h-35q-80 0 -196 -26q-5 -2 -30 -8l-20 -5l-15 -25q-37 -56 -100 -171q-11 -24 -11 -41
q0 -21 14 -50q19 -40 59 -120q11 -22 37 -62q3 -5 4 -6q18 -1 22 -1q35 0 94 30.5t92 30.5q0 -2 2.5 -10.5t1.5 -11.5q0 -1 -5.5 -6t-6.5 -7q-66 -84 -124 -165l-26 -35q-7 -7 -13 -25v-2q-1 -3 -1 -5zM376 325q10 0 10 -13q0 -12 -10 -12q-9 0 -9 12q0 13 9 13zM332 601
q22 0 54 -68q28 -62 28 -89v-7l-6 -6q-5 -5 -7 -6q-74 -15 -192 -15q0 6 1 21l1 30q0 17 3 51q0 17 12 25l103 64h3z" />
    <glyph glyph-name="colon" unicode=":" horiz-adv-x="280" 
d="M39 79q0 -83 83 -83q16 0 58 11q48 13 48 28v125q0 20 -43 30q-31 7 -57 7h-13q-4 -3 -50 -49q-7 -7 -12 -13q-14 -17 -14 -56zM38 412q0 -4 1 -11t1 -10l14 -48q10 -27 26 -42q11 -11 28 -11q85 0 109.5 28t24.5 114q0 28 -47 47q-36 13 -76 13h-10l-6 -1l-63 -62
q0 -3 -1 -8.5t-1 -8.5z" />
    <glyph glyph-name="semicolon" unicode=";" horiz-adv-x="298" 
d="M35 -201q0 -17 28 -20h11h6q4 1 6 1q79 73 104 103q53 63 72 127q13 45 13 106v16l-1 10q-1 1 -7 6l-14 10q-23 16 -67 50q-14 11 -37 11q-18 0 -63 -27q-34 -21 -44 -48q-7 -20 -7 -68q0 -73 77 -73q11 0 24 2l-100 -203q-1 -2 -1 -3zM51 402q0 -2 1 -11l63 -87l4 -1
q4 -1 6 -1q3 0 8 1t7 1l16 4q26 6 53 15l18 6q39 12 39 66v54q0 10 -31 26q-16 8 -45 23q-10 5 -13 5.5l-9 1.5h-9q-43 0 -75.5 -30.5t-32.5 -72.5z" />
    <glyph glyph-name="equal" unicode="=" horiz-adv-x="384" 
d="M357 112h-292q-5 0 -13 -25q0 -13 -2 -35q-2 -26 -2 -35q-1 -13 -1 -18q1 0 17.5 1.5t50.5 7.5l136 22q31 5 39 7q14 3 42 10q6 2 8 3q12 4 12.5 12.5t2.5 24.5t2 25zM357 262h-292q-5 0 -13 -25q0 -13 -2 -35q-2 -26 -2 -35q-1 -13 -1 -18q1 0 17.5 1.5t50.5 7.5l136 22
q31 5 39 7q23 5 42 11q6 2 8 2q12 4 12.5 12.5t2.5 24.5t2 25z" />
    <glyph glyph-name="question" unicode="?" horiz-adv-x="520" 
d="M145 92q0 -25 26 -57q27 -35 49 -35q66 0 99 17q15 7 15 20v125q0 3 -14 17q-7 7 -23 21q-8 8 -25 12h-13q-46 -13 -63 -22q-33 -17 -44 -47q-7 -20 -7 -51zM159 375v-115q19 0 25 2q26 7 79 20q25 5 41 12q10 5 11 6v87l13 5q7 3 19 8q22 5 66 19q39 14 46 42l19 76
l19 75v13q0 32 -19 70t-44 55q-38 2 -112 6l-68 4q-32 2 -45 2h-29q-39 0 -85 -47q-20 -26 -61 -78q-8 -8 -12 -25v-6q0 -27 15 -59q17 -37 40 -37t109 58l64 43q30 20 47 26h12q-18 -39 -25 -125z" />
    <glyph glyph-name="A" unicode="A" horiz-adv-x="757" 
d="M480 162v-166q138 0 219 16q14 3 14 30q0 2 -1 20l-75 663l-14 2q-32 4 -76 8l-35 2q-14 1 -47 3l-181 7q-70 3 -72 3h-29q-28 0 -37 -20q-4 -6 -9 -43l-99 -675h261v135l150 28zM285 592q21 0 71 -17q55 -19 96 -40q48 -26 48 -48v-6q-1 -4 -1 -6l-14 -67
q-11 -42 -26 -61q-27 -36 -122 -36q-6 0 -15 1h-10l-13 25q0 -14 -6 70q-2 28 -3 57l-3 48q0 11 -1 32v33q-1 11 -1 15z" />
    <glyph glyph-name="B" unicode="B" horiz-adv-x="709" 
d="M50 712v-712h500q1 0 13 12q0 2 2 5l4 8l6 12l32 57q10 19 31 56q3 5 10 18l12 24q15 30 15 32.5t1 6.5t1 6q0 22 -24 46q-5 5 -15 17q-27 31 -65 67q-9 8 -10 8h-38v12q1 2 9 11l45 53q16 18 21 24l7 7l13 11q8 8 18 19q2 4 2 25t-2 25q-12 15 -100 121q-10 12 -25 29
q-18 21 -41 43q-7 6 -9 7h-25q-25 -3 -60 -6l-219 -23q-31 -3 -50 -5l-21 -3zM199 489q0 13 8.5 21t17.5 15q6 4 20 15l30 22q16 13 50 38q3 0 10 1h9q23 0 31 -14q17 -29 34 -65q4 -9 4 -10l-111 -125l123 -137q0 -1 1 -5t1 -6q0 -23 -18 -48q-17 -21 -34 -41
q-22 -28 -39 -28h-23q-26 0 -38 3q-14 21 -25 75q-17 87 -36 200q-6 25 -14 75v7q-1 5 -1 7z" />
    <glyph glyph-name="C" unicode="C" horiz-adv-x="709" 
d="M30 425q3 -13 12 -45l38 -135q10 -35 13 -45l21 -63q1 -6 10 -18l6 -7q29 -16 88 -48q26 -15 50 -27l32 -16q16 -8 29 -14l14 -7l5 -1h6h7q5 1 7 1q55 9 145 28l42 9q55 12 69 35q8 13 17 38q11 34 14 40q14 33 14 32v19q0 26 -15 60q-17 39 -42 39q-23 0 -86.5 -44.5
t-106.5 -44.5q-5 0 -15 1h-11q-8 1 -20 3l-25 4q-12 2 -21 4l-9 2l-2 9q-4 20 -11 66q-3 30 -10 90q-2 16 -2 22h-50q59 70 119 93q24 9 48 9q28 0 82 -7.5t82 -7.5h22q15 1 22 1q2 10 8 35l11 53q6 27 11 52l7 35v25q-13 3 -40 10q-7 2 -10 2q-20 3 -56 9l-189 29
q-5 0 -15 1h-15h-22h-15q-10 -1 -15 -1h-10q-3 -3 -9.5 -9t-9.5 -9l-11 -11q-15 -19 -43 -54q-13 -17 -27 -36l-27 -35q-16 -21 -84 -97q-28 -32 -28 -62v-6q1 -4 1 -6z" />
    <glyph glyph-name="D" unicode="D" horiz-adv-x="701" 
d="M50 675v-684h37l55 1q31 1 65 2l65 2q31 0 91 4l60 10q41 6 77 15q2 0 31 10q25 8 32 15q2 5 6 12l4 8q2 4 3.5 6.5t10.5 19.5l20 35q10 19 31 56l15 30l10 20v9q0 7 1 19v20v35v22q-1 15 -1 22v11q-1 11 -4 38l-15 113q-4 26 -6 36q-9 28 -25 38q-22 11 -64 34l-43 24
q-21 11 -31 17q-19 8 -84 43q-13 6 -16 7h-25l-112 -14l-63 -8q-64 -8 -96 -13l-16 -3zM269 175v350q0 4 19 12q23 10 37 13h13l137 -138q3 -2 3 -21q0 -26 -3 -29q-6 -23 -30 -81q-6 -15 -7 -19l-6 -18l-4 -12q-2 -6 -3 -7q-10 -18 -76.5 -46.5t-91.5 -28.5h-7z" />
    <glyph glyph-name="E" unicode="E" horiz-adv-x="607" 
d="M112 487v-487h400l12 12q1 1 16 55q6 22 12 45l10 38q2 4 2 19h-222q0 3 -1 9l-2 13q-2 12 -2 21q0 1 12 13q50 36 163 87v50q-2 16 -7 50l-3 23q-2 9 -3 9h-162q-9 0 -12 17q-2 6 -2 12v8q0 38 59 52q37 4 110 14q59 8 59 30q0 4 -1 11.5t-1 11.5q-7 59 -19 120
q-2 13 -5 26q-4 17 -15 17q-12 -1 -19 -1q-240 0 -429 -25q-10 -44 -15 -81l-6 -43q-3 -24 -4 -38.5t-2 -44.5l-1 -11h103z" />
    <glyph glyph-name="F" unicode="F" horiz-adv-x="568" 
d="M51 0h316q0 19 -2.5 25t-9.5 30l-16 51q-11 27 -26 81q0 8 4 36q1 6 1 8h158l2 15q4 33 8 80l2 36q0 11 2 34l1 21v13q-38 0 -107.5 -28t-107.5 -28h-7q-4 1 -6 1q-36 83 -36 120q9 0 79 -7q15 -2 20 -1q10 2 66 16l48 12q14 3 36 9.5t25 12.5q0 -3 6 21q35 140 35 206
q-248 0 -491 -27v-737z" />
    <glyph glyph-name="G" unicode="G" horiz-adv-x="725" 
d="M37 431q0 -21 2 -37v-7q0 -6 3 -24l13 -96q4 -29 8 -56l13 -86q9 -59 51 -74l37 -14q4 -1 19 -6l63 -24q14 -6 18 -7l17 -2l12 -1h9q36 0 74.5 33.5t63.5 33.5q16 0 29 -26t32 -26h150v413h-187q-7 0 -28 -42q-28 -55 -53 -122q-6 -17 -7 -24v-12q-1 -9 -1 -13v-13
q1 -8 1 -12q-37 19 -100 88v12q1 7 3 23l4 31q2 17 6 46l7 42q4 26 24 39q9 6 44 19q73 26 190 61l47 14q21 12 50.5 85.5t29.5 103.5q-213 0 -467 -26q-10 -8 -25 -25q-35 -48 -61 -92q-10 -16 -14 -21q-23 -26 -64 -83q-10 -16 -11 -29v-5q-2 -17 -2 -39z" />
    <glyph glyph-name="H" unicode="H" horiz-adv-x="733" 
d="M83 712q-3 -37 -10 -109q-1 -9 -2 -28q-1 -10 -2 -42l-4 -84q-4 -76 -10 -228l-5 -110q-4 -73 -4 -86v-28q94 0 187 15q33 5 50 11l6 2v162q0 3 13 12q33 24 71 32q28 6 54 6h19q-15 -90 -15 -212h252v712h-197l-28 -287h-156v302q-115 0 -219 -40z" />
    <glyph glyph-name="I" unicode="I" horiz-adv-x="353" 
d="M51 750v-750h200l13 12l3 35q3 35 8 92l21 269q5 72 10 139q8 127 8 115v38q0 8 -13 12q-116 38 -218 38h-32z" />
    <glyph glyph-name="J" unicode="J" horiz-adv-x="506" 
d="M24 104q-3 -37 36 -68q35 -28 77 -32q28 -2 85 16q29 10 87 31q14 5 30 11l75 30l56 649h-6q-4 -1 -6 -1q-6 0 -25 -3q-12 -2 -26 -5q-69 -6 -163 -16l-40 -4q-4 2 -13.5 -2t-11 -8t-3 -11.5t-2 -11.5t-0.5 -15v-12l53 -406l-5 -50q-16 30 -63 48q-28 10 -79 16
q-31 4 -44 -61q-6 -27 -12 -95z" />
    <glyph glyph-name="K" unicode="K" horiz-adv-x="707" 
d="M438 221q0 -3 -1 -21q-1 -7 -6 -34l-12 -60q-8 -31 -20 -94v-8q-1 -5 -1 -8q127 0 214 16q17 3 33 11l4 2v350l-12 12q-35 20 -110 54q-21 7 -40 9q47 58 130 151l32 36q14 16 14 15v10q0 20 -14 25q-29 11 -75 26l-45 15q-21 7 -30 9q-3 0 -9.5 1t-9.5 1q-27 0 -68 -71
q-23 -44 -70 -132q-40 -71 -65 -71q0 40 5 118.5t5 118.5q0 3 1 9q2 26 -14 26h-225v-712h188l2 9q4 18 8 45l2 21q5 42 11 120q1 21 2 30q4 6 24 26q9 9 26 24l2 1h3.5h4.5l2 -1q20 -10 60 -29q13 -8 37 -23q14 -9 16 -11l1 -6v-10z" />
    <glyph glyph-name="L" unicode="L" horiz-adv-x="522" 
d="M325 716q-4 0 -38 -1l-22 -1q-11 -1 -15 -2q-64 -6 -122 -13q-50 -6 -78 -12v-687h451v6q-1 4 -1 6q-7 29 -31 143q-7 33 -13 55q-5 14 -6 15l-7 1h-10t-21 -1l-75 -24l-75 -26h-12l12 25z" />
    <glyph glyph-name="M" unicode="M" horiz-adv-x="1020" 
d="M319 37q6 -13 44 -22q34 -8 73 -11l30 -3q12 -1 16 -1h12q42 76 92 185q41 95 83 190q3 8 6 19q3 8 7 18q4 6 18 20q3 3 9.5 9t9.5 9v-425h213l12 50q1 2 3 29l4 69q2 42 5 94l10 203q1 29 3 80q1 10 2 38l2 113v36h-329l-3 -5q-18 -33 -102 -236q-41 -97 -70 -196
q-14 40 -24 161l-9 105q-10 114 -26 168q-9 28 -21 28h-7q-21 -3 -49 -8l-173 -31q-24 -5 -38 -8l-15 -3l-13 -62q0 -9 -9 -117l-32 -377q-5 -62 -9 -106v-13l7 -7q5 -5 6 -5h137q7 0 13.5 13.5t11.5 36.5q1 5 4 21l7 36q5 29 16 87l11 56l7 33q10 45 23 98q5 22 7 31
q14 -33 14 -73q0 -18 -1 -37q-1 -14 0 -40q0 -13 2 -49l4 -75z" />
    <glyph glyph-name="N" unicode="N" horiz-adv-x="832" 
d="M423 12q1 -11 22 -14q8 -1 15 0t10 1q93 0 191 13q15 2 37 13q10 10 13 37l81 675h-231q-2 0 -7 -34q-2 -14 -3 -28l-3 -25q-2 -61 -6 -181q-2 -40 -3 -75l-2 -64q-1 -29 -1 -43q-21 13 -31 65q-2 9 -20 60q-9 26 -21 60l-74 209q-11 29 -17 44q-2 7 -10.5 22t-19.5 15
h-7q-43 -4 -128 -14q-25 -3 -45 -5l-35 -3q-14 -2 -16.5 -2.5t-26.5 -6.5q-10 -2 -23.5 -6t-13.5 -13v-687h207v487q15 -15 18 -25q2 -5 29 -85l9 -27q0 -1 6 -25t6 -25q6 -18 20 -62z" />
    <glyph glyph-name="O" unicode="O" horiz-adv-x="800" 
d="M34 462q17 -77 53 -230l22 -95q5 -19 8 -27q5 -14 14 -24q6 -8 15 -11l240 -80l260 130q18 9 50 83t53 143q23 77 23 100v7l-1 4l-187 238l-25 12q4 0 -54 9q-24 3 -54 7l-119 16q-28 3 -48 6h-13q-69 -62 -164 -179l-48 -59q-20 -25 -25 -37l-1 -2q-1 -3 -1 -4t1 -3.5
t1 -3.5zM259 462q8 8 49 40q6 5 13 10q51 39 81 39h10q6 -1 9 -1q20 -17 60 -50q6 -5 15 -13q25 -22 25 -25v-175q0 -2 -19 -31q-10 -15 -31 -44q-15 -18 -25 -25h-2q-3 -1 -4 -1h-3q-2 1 -3 1q-6 4 -22 13l-68 38q-12 7 -23 12q-24 11 -32 19q-15 12 -18 31q0 5 -1 20
l-8 91q-3 36 -3 39v12z" />
    <glyph glyph-name="P" unicode="P" horiz-adv-x="713" 
d="M44 687q0 2 7 -108l29 -471l2 -33l12 -75l13 -1h21q93 0 166 13q21 4 39 11l5 2v137l19 13h39q88 0 123 25l6 6q5 5 7 6q9 9 92 82q11 10 20 18q18 17 25 38q1 8 20 150q3 26 5 37v38q-13 8 -38 25l-22 15l-15 10q-4 2 -106 63l-44 26q-21 11 -62 36h-25q1 0 -92 -10
l-65 -8q-34 -4 -65 -8l-55 -7q-25 -3 -37 -4t-24 -13v-13zM294 600l2 1h3q24 0 82 -38.5t76 -62.5q-8 -32 -16 -65q-10 -38 -25 -61q-13 -18 -34 -24q-47 -14 -80 -21q-14 -3 -20 -4q-9 -3 -28 -3v13q0 11 2 40q0 9 1 12q6 62 19 151q4 26 5 38t13 24z" />
    <glyph glyph-name="Q" unicode="Q" horiz-adv-x="866" 
d="M32 387q0 -19 31.5 -111.5t62.5 -163.5q15 -37 19 -47q18 -39 24 -40q-2 0 34 -6q14 -3 41 -7q8 -1 30 -3l39 -4q48 -5 56 -5h12q9 0 26 -1h27h40h27q17 1 26 1h17q12 20 56 37.5t57 37.5q17 -15 35.5 -31t37.5 -25q15 -8 29 -8q3 0 6 1h4l63 125q0 2 1 6v7q0 25 -45 44
t-45 43q0 31 39.5 75.5t39.5 74.5q0 22 -3 25q-33 46 -100 138l-76 106q-14 19 -24 31l-25 32q-8 11 -25 31h-25l-91 -10l-65 -8q-34 -4 -65 -8l-55 -7q-25 -3 -36 -5q-31 -21 -57 -69q-22 -41 -43 -81q-6 -10 -16 -25l-28 -43q-15 -23 -28 -43l-16 -26q-12 -20 -12 -38z
M473 526q6 -1 9 -1l-13 -25l101 -102q1 -2 1 -4t-1 -4l-1 -3q-6 -12 -18 -37l-19 -38h-6q-5 -1 -7 -1q-20 0 -54 19.5t-52 19.5h-6q-3 0 -12.5 -12t-28.5 -35l-14 -18q-7 -8 -8 -10q-6 -12 -12 -25q4 -15 25 -25q27 -12 90 -32q16 -5 22 -6h-191q0 9 1 30l1 45q0 10 1 38
q1 23 1 37.5t2 37.5l8 83q1 15 2 17l13 12q3 3 55 17q27 8 82 21q3 0 9 1h10h10z" />
    <glyph glyph-name="R" unicode="R" horiz-adv-x="727" 
d="M289 250q3 -2 22 -18q8 -7 21 -20q12 -16 39 -55l60 -88q14 -19 39 -57l12 -12l3 -1h3.5h4.5l2 1q66 31 200 87q0 2 1 7v6q0 27 -39 74l-54 58q-32 35 -47 64q-12 21 -12 41q0 22 33 35q21 8 25 10q14 7 18 18q25 63 25 219v31q-94 58 -238 125h-25q-13 -2 -37 -5l-54 -6
q-40 -6 -119 -16l-77 -11q-28 -4 -44 -10l-6 -2v-675h244v200zM245 462l-13 13v3q-1 2 -1 3q0 11 60 66q26 24 79 65l3 1q2 1 3 1t4 -1l2 -1q8 -4 25 -25q14 -17 43 -51q6 -10 7 -11l1 -2q1 -3 1 -4q0 -2 -1 -4l-1 -3q-5 -10 -25 -40q-9 -14 -25 -35q-3 -3 -25 -12h-12
q-21 6 -62 18l-38 12q-18 5 -25 7z" />
    <glyph glyph-name="S" unicode="S" horiz-adv-x="638" 
d="M48 212q0 -44 20 -117q4 -19 15 -55q2 -6 4 -13q1 -3 10 -5q24 -6 53 -9t86 -7l54 -4q25 -2 36 -2h112q3 3 9.5 9t9.5 9l19 19q7 10 25 35l100 140q0 4 1 13v12.5v14.5l-1 10q0 2 -10 27l-8 20q-6 13 -17 38l-30 68q-7 16 -10 22q-10 4 -30 11q-6 2 -8 2q-13 2 -45 8
l-67 11q-36 6 -68 11l-45 7q-14 3 -14 34q0 4 2 16q2 2 21 7l16 4q6 2 13 2q37 2 112 6l68 4q32 2 45 2q53 88 53 189q-219 0 -378 -26q-17 -3 -45 -21q-15 -10 -43 -29q-4 -2 -10 -6l-12 -8q-6 -4 -10 -7l-5 -4l-5 -20q-34 -136 -34 -210q0 -4 1 -20l125 -125h14
q13 -1 21 -1h13q5 0 16 1h15h9q-2 0 37 6t38 6q42 0 49 -66q1 -16 1 -27v-19q-176 37 -328 37z" />
    <glyph glyph-name="T" unicode="T" horiz-adv-x="625" 
d="M99 19q0 -2 2 -7l12 -12h294v475l19 19h125q4 0 12 18q38 86 38 202q0 23 -23 23h-127q-245 0 -388 -25q-27 -135 -27 -263q93 0 165 26q-3 -20 -10 -60q-1 -7 -3 -15q-6 -30 -43 -187l-34 -144q-7 -30 -10 -44q0 -1 -1 -3t-1 -3z" />
    <glyph glyph-name="U" unicode="U" horiz-adv-x="766" 
d="M37 175l9 -9l66 -66q10 -10 90 -80l23 -20h21q11 0 32 -1h32h48h32q21 1 32 1h15q10 0 26 2l60 8q12 1 14 2l150 125q2 2 7 35q2 14 4 29l2 24q0 12 6 104q2 41 5 92l10 193q4 79 4 73v15q0 23 -18 23h-7l-52 -10q-32 -6 -62 -12l-52 -10q-21 -5 -22 -6l-19 -12v-425
q0 -6 -18 -13q-3 -1 -53 -20l-29 -11q-14 -5 -18 -6h-7q-5 -1 -7 -1q-29 0 -47 57q-16 46 -16 79q0 70 22.5 208t22.5 208q-1 0 -18 -1q-1 0 -25 -6q-10 -2 -25 -7q-9 -1 -30 -4l-45 -8q-25 -5 -75 -13q-22 -14 -25 -37z" />
    <glyph glyph-name="V" unicode="V" horiz-adv-x="765" 
d="M32 712v-6q1 -4 1 -6l150 -650q5 -22 7 -28q7 -16 19 -19q7 -3 20 -3h29q11 0 37 2l53 4q28 2 84 6.5t89 10.5l12 2l25 25q4 0 15 42l16 66l94 345q16 61 25 97q28 116 28 151q-53 0 -162 -8q-32 -3 -55 -4l-23 -2l-25 -25q-7 -40 -21 -121l-45 -243q-6 -33 -9 -48
q-1 -5 -4 -17l-15 -53q-4 -13 -6 -18q-4 13 -11 40q-2 7 -2 10q-3 17 -8 54l-11 82q-9 63 -26 191l-10 82q-5 36 -7 54l-13 12h-237q-14 0 -14 -25z" />
    <glyph glyph-name="W" unicode="W" horiz-adv-x="1042" 
d="M105 37l13 -12l12 -2q40 -7 88 -11q-5 0 67 -6t83 -6h12q6 16 19 46.5t19 46.5l23 57q9 23 14 37q0 1 21 71q14 46 29 67q10 -15 13 -25q25 -101 87 -300h9q4 0 13 -1h13h9q107 0 185 20q30 7 34 18q0 -2 6 22l4 16l2 12q8 40 22 106l79 377q11 52 18 85l6 32v50h-237
l-2 -5q-7 -19 -11 -45q0 2 -6 -43t-6 -44q-6 -36 -18 -107l-21 -114q-5 -24 -8 -39l-3 -15l-13 -13l-12 13l-38 325l-12 25q-1 1 -9 3l-21 3q-37 6 -45 6q-34 2 -63 2q-23 0 -50 -1q-9 -1 -12 -1q-4 -12 -13 -37q-17 -80 -50 -240q-9 -43 -12 -60q-6 -18 -27 -53
q-8 -8 -17 -10v468q-11 0 -45 -4q-8 -1 -11 -1q-8 -2 -32 -7l-105 -22q-15 -4 -39 -10t-24 -11v-113z" />
    <glyph glyph-name="X" unicode="X" horiz-adv-x="822" 
d="M496 25q8 -17 25 -25l3 -1h3h3q2 1 3 1q17 6 121 49q16 8 50 20q45 12 45 37q0 14 -3 19q-10 18 -51 100q-7 14 -12 25q-21 41 -56 127q-8 23 -8 42q0 29 14 56q7 13 44 75l28 47q13 22 16 28l6 12l4 8q2 4 2 5l34 54q19 33 19 60q-16 0 -42 -2q-33 -2 -41 -2
q-69 -3 -128 -8q-38 -3 -50 -5q-36 -7 -42 -22q-2 -9 -9 -30l-15 -45q-14 -42 -26 -75q-7 -19 -19 -40q-4 -7 -6 -10q-21 13 -36 73q-7 34 -24 101q-16 51 -39 51h-13l-160 -29q-29 -6 -40 -9q0 -3 -1 -9t-1 -9t1 -9.5t1 -10t6 -13t6 -11.5l26 -61q36 -86 53 -149
q10 -38 10 -68q0 -4 -1 -22q-23 -64 -78 -152l-45 -72q-23 -37 -40 -76q-5 -15 -5 -25h293l3 6l22 44q2 6 27 89q15 54 35 86q14 -10 25 -38q6 -15 13 -36l38 -113q9 -27 12 -38z" />
    <glyph glyph-name="Y" unicode="Y" horiz-adv-x="754" 
d="M230 200l-5 -30q-4 -24 -8 -51l-12 -82q0 -7 -1.5 -20t-1.5 -20q51 0 103 5l100 10q42 4 72 11l9 2v187q0 19 64 65q19 13 58.5 39.5t59.5 40.5q63 45 63 67v7q-1 4 -1 6l-88 313l-6 1q-6 1 -9 1q-16 0 -64 -13q-62 -18 -97 -34q-50 -23 -50 -43q0 -31 26.5 -99.5
t26.5 -100.5v-10q0 -23 -14 -27l-150 -38l12 25v325h-212l-2 -4q-4 -7 -11 -33q-5 -18 -31 -137l-13 -57l-18 -81v-13q-1 -8 -1 -12q0 -55 86 -100q49 -27 64 -37q38 -25 51 -51v-12z" />
    <glyph glyph-name="Z" unicode="Z" horiz-adv-x="675" 
d="M135 0h475v226h-6q-5 -1 -7 -1q-7 -1 -29 -4l-51 -7q-21 -3 -63 -8t-62 -8l-95 -11q3 4 12 13l38 38q8 8 13 12q43 35 131 106l131 106q2 3 7 13l6 12v13q-3 11 -12 40l-38 121q-7 22 -25 64q-8 12 -23 12h-15q10 0 -55 -2l-69 -2l-74 -2l-67 -3q-7 0 -36 -2
q-22 -1 -36 -1q-3 0 -45 -6q-15 -2 -43 -7q-8 -4 -12 -12q-4 -18 -12 -81q-5 -27 -13 -82v-13q0 -19 12 -24h20h30q20 -1 30 -1h20q15 0 35 -1q19 -1 40 0q25 1 38 3q22 3 37 11q0 -1 1 -3t1 -3t-1 -3l-1 -3q-1 -2 -7 -8l-30 -30q-22 -22 -120 -111l-27 -24q-7 -6 -16 -15
q-36 -33 -77 -76l-10 -11v-25z" />
    <glyph glyph-name="backslash" unicode="\" horiz-adv-x="426" 
d="M53 726q29 0 60 -37q21 -27 40 -64q12 -20 59 -116q6 -14 15 -33.5t26 -56.5l38 -87q9 -19 25 -57q0 -2 2 -5l4 -8l6 -12q6 -13 17 -39l58 -136q15 -35 15 -79q-19 0 -33 19q-5 6 -19 35q-5 10 -44 75l-28 47q-7 13 -16 28l-30 61q-6 11 -7 14l-124 210q-74 125 -114 215
v3q-1 2 -1 3q0 13 22 18q8 2 16 2h13z" />
    <glyph glyph-name="a" unicode="a" horiz-adv-x="567" 
d="M33 137q0 -16 38 -75.5t50 -61.5q29 -1 36 -1q65 0 176 51l3 1h4q18 0 31 -39h112l13 13q2 2 8 58q2 25 5 56l5 63q2 37 7 110q0 4 1 18l1 33v35v46q0 18 -1 45q-1 9 -1 11l-13 12q-4 2 -27 7l-65 14q-38 8 -78 16l-67 13q-2 0 -6.5 1t-6.5 1t-7 -1l-5 -1q-9 -2 -30 -9
l-45 -15q-25 -8 -75 -26q-17 -2 -14 -27v-9v-12q0 -45 14 -45h212q9 0 13 -16q1 -7 1 -14v-8q0 -27 -12.5 -30.5t-38.5 -10.5l-113 -30q-11 -3 -37 -10q-47 -13 -67 -60q-10 -24 -21 -90v-13zM183 187q19 24 54 48q42 29 65 29q2 0 4 -1l2 -1q6 -4 26 -24q9 -9 24 -26
q-13 -17 -40 -50q-7 -9 -10 -12q-7 -11 -24 -25q-5 -1 -13 -1q-21 0 -49 24q-15 11 -39 39z" />
    <glyph glyph-name="b" unicode="b" horiz-adv-x="615" 
d="M202 51q22 0 57.5 -26t61.5 -26q31 0 111 23q35 10 54 17q40 14 49 23q21 22 41 108q5 21 21 117v13q-7 25 -20 76l-17 61q-10 25 -20 43q-4 6 -5 7q-24 13 -74 38l-60 27l-18 6q-9 3 -11 3.5l-6 1.5t-6 1t-6.5 -1t-6.5 -1q-66 -102 -137 -162q3 13 10 40q2 7 2 10
q1 9 3 29l5 46q2 25 5 54l12 133q0 4 1 15l2 47v15q-5 0 -14 -1t-14 -1q-30 -3 -107 -14l-48 -7q-19 -3 -20 -4v-737h113q11 26 42 26zM258 230q0 23 7 39q9 24 29 74l3 7q8 12 38 14q12 1 23 1q10 -1 14 -1q6 0 19 1q56 2 56 -26v-14q-8 -72 -21 -143q-4 -18 -4 -20
l-12 -12q-27 10 -80 30q-8 3 -20 7q-18 6 -35 13.5t-17 29.5z" />
    <glyph glyph-name="c" unicode="c" horiz-adv-x="497" 
d="M34 196q0 -42 40 -89q17 -20 37 -37l37 -33q8 -7 25 -12l22 -6q35 -9 61 -15q13 -3 17 -4q21 -1 25 -1q54 0 117 68q18 20 32.5 32.5t14.5 24.5q0 17 -14 51q-6 15 -21 45l-4 5h-13l-125 -63h-8q-5 -1 -8 -1q-84 0 -84 33v6q13 34 41 102l10 26q1 2 1 3q0 2 -1 4l-1 2
q-8 17 -25 25l25 13h200v175q0 4 -12 12h-13q-98 -14 -198 -29l-89 -14q-35 -6 -38 -7l-12 -12q-3 -3 -17 -104l-12 -86q-6 -44 -9 -73v-7v-12q-1 -9 -1 -13v-9z" />
    <glyph glyph-name="d" unicode="d" horiz-adv-x="700" 
d="M14 276q0 -16 13 -39q8 -11 32 -48t70 -109q8 -14 11 -18l6 -12l4 -8q2 -4 2 -5q9 -12 25 -37h9q4 0 13 -1h13h9q93 0 143 12q41 9 60.5 32t25.5 28q15 14 34 16v-62h168v750h-252q0 -191 52 -325h-6q-31 0 -97 50.5t-103 50.5h-10q-6 -1 -9 -1q-7 -8 -20 -24l-31 -38
q-17 -21 -36 -44l-36 -44q-17 -21 -52 -63q-17 -20 -32 -42q-5 -7 -5 -8v-4q-1 -5 -1 -7zM239 236q0 37 23 80q26 48 60 48q3 0 9 -1t9 -1q8 -3 46 -22l54 -28q12 -4 12 -12q1 -2 3 -12l7 -53q2 -14 3 -23v-7q0 -20 -56 -38q-50 -17 -75 -17h-7q-44 22 -57 32q-31 24 -31 54
z" />
    <glyph glyph-name="e" unicode="e" horiz-adv-x="605" 
d="M33 287q51 -176 100 -262q7 -13 13 -13q48 -13 156 -13h18h21q13 1 20 1h10q73 8 163 30q22 5 24 7l13 13v100h-223q0 21 44 50q22 12 66 37q36 22 61 40q6 4 14 10q14 10 14 25v7q-1 4 -1 5t-6 13l-4 8q-2 4 -3 5q-11 29 -31 88l-20 55q-8 23 -11 32.5t-13 24.5
q-7 0 -22 1h-21h-12h-13q-9 -1 -13 -1h-6q-53 -9 -159 -25q-34 -6 -66 -13q-26 -18 -70 -99t-44 -107v-9q1 -7 1 -10zM196 362q13 26 50 40q32 12 64 12q21 0 54 -40t33 -62v-6q-1 -4 -1 -6q-61 -31 -113 -38q-21 -1 -25 -1h-12q-9 1 -13 1q1 9 0 24q-4 63 -37 76z" />
    <glyph glyph-name="f" unicode="f" horiz-adv-x="456" 
d="M113 481h-96q0 -11 1 -34t1 -35q0 -8 2 -20l4 -24q5 -29 8 -32t36 -6q13 -1 38 -5q18 -5 18 -13v-312h219q2 1 6 5l7 7v13q-15 72 -44 217q-7 29 -19 89h125v150h-125q-7 0 -10 12q-2 5 -2 10v8q0 55 36 84q17 14 44 22q23 6 47 12q10 3 10 8v100q0 1 -19 6q-10 3 -31 7
l-40 6q-16 2 -47 6h-13q-28 -16 -78 -56t-78 -56v-169z" />
    <glyph glyph-name="g" unicode="g" horiz-adv-x="661" 
d="M28 -189q8 -20 13 -25l195 -130l305 80q16 4 32 50q20 57 28 130q2 18 2 26v19q-29 19 -87 56l-53 34q-25 16 -35 23q-8 4 -12 12q8 -2 32 -2q23 0 30 2q39 12 102 39q17 7 23 11q0 23 2 50v13q0 17 1 37q1 73 -40 100q-3 2 -14 8l-24 12q-13 5 -37 18q-16 11 -40 30
q-7 5 -10 7h186l-74 163h-50q-3 0 -17 -3l-41 -9l-180 -39q-18 -5 -49 -12q-20 -5 -28 -8q-16 -6 -21.5 -15.5t-23.5 -46.5l-68 -135q-15 -30 -22 -45l-2 -6l-4 -11q-6 -18 -6 -20v-13l75 -75q1 -1 50 -44q16 -15 50 -43q19 -19 22 -23q11 -12 15 -27h-175l-2 -5
q-4 -9 -10 -33q-5 -17 -13 -50l-12 -50q0 -1 -6 -19q-3 -8 -7 -18v-13zM227 -145q0 1 1 3v3l82 81l106 -93v-25q0 -1 -44 -16q-18 -6 -37 -12l-32 -10h-6q-29 0 -57 44l-12 19v2q-1 3 -1 4zM280 350h7l4 -1l112 -113q-16 -18 -32 -37q-19 -20 -35.5 -29.5t-32.5 -9.5
q-25 0 -60 35l-10 11q-5 4 -5 5v113q0 11 22 19q19 7 30 7z" />
    <glyph glyph-name="h" unicode="h" horiz-adv-x="666" 
d="M460 275q0 -4 -1 -12.5t-1 -12.5q-4 -23 -13 -67l-11 -52q-7 -31 -21 -94q-4 -19 -5 -25v-7q-1 -5 -1 -8q110 0 167 17q26 8 34 23q5 31 20 163l14 125q4 34 4 37v13q-3 5 -24 32q-16 20 -26 30q-33 34 -100 102q-18 17 -25 23q-2 0 -6.5 1t-6.5 1t-6 -1t-6 -1
q-63 -19 -91 -37q-38 -25 -59 -75l-13 25v300q0 4 -12 12h-13q-1 0 -25 -6t-25 -6l-25 -5q-20 -4 -43 -8l-43 -7q-12 -2 -26 -5q-20 -5 -23 -9.5t-2 -9.5v-15v-29q0 -8 4 -77l22 -391q3 -65 11 -194h194v225l94 87h5q32 0 56 -15q28 -17 28 -47z" />
    <glyph glyph-name="i" unicode="i" horiz-adv-x="342" 
d="M52 487v-487h175l13 25l14 175l17 196q3 46 6 79v12h-225zM40 630q0 -21 52 -39q46 -17 74 -17q30 0 89.5 18.5t59.5 32.5v125q0 13 -56.5 32t-76.5 19q-44 0 -101 -42q-16 -12 -29 -22q-3 -27 -10 -80q-2 -14 -2 -20v-7z" />
    <glyph glyph-name="j" unicode="j" horiz-adv-x="369" 
d="M21 -229q0 -26 35 -49q9 -6 18 -13l3 -1q2 -1 3 -1q16 0 70 44q48 41 96.5 91.5t52.5 66.5q1 20 4 62l7 95q4 53 8 112l14 206q3 47 4 62v10q0 5 1 15v15v10h-238v-537q4 -8 12 -25v-13q-5 -14 -12 -25q-3 -4 -38 -56l-37 -56q0 -2 -1.5 -6.5t-1.5 -6.5zM210 835h-6
l-5 -1q-17 -10 -50 -29q-13 -9 -23 -18q-14 -13 -23 -22q-4 -5 -4 -6v-125q0 -15 37.5 -33.5t49.5 -18.5q2 0 6.5 1t7.5 1.5t16 7.5l60 30q9 4 23 12q18 10 33 21q4 3 4 4v137q0 5 -57 22q-61 17 -69 17z" />
    <glyph glyph-name="k" unicode="k" horiz-adv-x="579" 
d="M366 187v-190h43q57 0 101 11q23 5 37 17v100q0 103 -16 134q-12 21 -41 30l-50 14q-8 3 -18 9q6 18 13 26t21 22l68 68q16 16 23 22v25q0 2 -24 26l-39 36q-14 13 -27 26q-17 13 -35 13q-27 0 -59 -44q-19 -31 -39 -61q-24 -37 -45 -54q-15 -13 -32 -13q0 64 7.5 192.5
t7.5 192.5q-2 0 -7.5 -1t-7.5 -1l-57 -10q-34 -6 -65 -12l-78 -15v-725h181v175h119z" />
    <glyph glyph-name="l" unicode="l" horiz-adv-x="311" 
d="M47 0h163l12 12q3 3 13 118l10 118q5 65 10 131l17 233q0 8 1 31l2 45q2 48 2 76q-3 0 -8.5 -1t-8.5 -1l-200 -37l-13 -13v-712z" />
    <glyph glyph-name="m" unicode="m" horiz-adv-x="939" 
d="M188 514q-66 0 -124 -24q-17 -7 -17 -15v-475h206v187q0 1 16.5 15.5t27.5 22.5q4 3 18 12l3 3q14 9 16 10q4 1 16 -2t16 -3v-245h168q8 0 13 25q0 1 6 63l6 62q1 8 5 28l15 82q3 19 6.5 26t11.5 14h12q2 0 20.5 -6t29.5 -13q7 -5 7 -6v-275h156q7 0 27 95q8 41 17 90
l16 92q16 97 16 119q0 36 -81 84q-41 24 -120 57h-6q-32 0 -80.5 -50t-82.5 -50h-6q-2 4 -22 47q-14 29 -29 44q-12 11 -30 11q-3 0 -9.5 -1t-9.5 -1q-9 -2 -30 -9l-45 -15q-25 -8 -75 -26q-4 -12 -20 -33q-5 -5 -11 -5h-3q-3 1 -4 1q2 8 -8 33q-9 21 -17 29l-8 1
q-8 1 -13 1z" />
    <glyph glyph-name="n" unicode="n" horiz-adv-x="644" 
d="M46 0h190q0 40 -7.5 120t-7.5 120v10q12 24 42 67q6 8 8 8h25l93 -88v-237h152l67 325v25l-150 162q-13 14 -19 14h-11q-20 0 -82 -26q-27 -10 -81 -31q-15 -6 -19 -7q-12 -5 -17 -23q-4 -13 -8 -27q-4 -9 -13 -25q-8 11 -18 69q-8 45 -36 45q-21 0 -60 -7
q-48 -9 -48 -19v-475z" />
    <glyph glyph-name="o" unicode="o" horiz-adv-x="661" 
d="M33 192q0 -50 45 -74q15 -8 31 -18q37 -24 113 -72l25 -16q1 -1 14 -6l11 -6h12q5 1 20 6l33 11q20 6 60 20q6 3 21 9l30 11q17 6 49 18q28 12 46 36q7 9 29 51q8 15 18 34l20 41q24 48 24 50v13q0 5 -34 73q-17 34 -53 102q-19 33 -82 57q-32 9 -93 30q-18 8 -54 22
q-10 3 -15 3h-6q-9 -4 -30 -14l-45 -23q-24 -12 -45 -23l-62 -31q-49 -25 -56 -71l-17 -114q-9 -60 -9 -119zM184 312l29 32q36 39 78 69q19 13 31 13q18 0 37 -26q13 -17 38 -50l23 -30q10 -14 14 -20q0 -2 1 -6.5t1 -6.5t-1 -6t-1 -6q-9 -25 -25 -75q-10 -20 -20 -33
q-4 -5 -5 -5h-150q-2 0 -12 25q0 -1 -6 17l-4 12q-2 7 -7 26l-8 26q-5 15 -13 44z" />
    <glyph glyph-name="p" unicode="p" horiz-adv-x="699" 
d="M44 494v-16q0 -8 1 -24v-23v-15l15 -404q2 -73 5 -130l5 -128l13 -13h187v263l-25 25h19q48 0 124 -32l60 -25q30 -12 60 -18q3 0 9.5 -1t9.5 -1t9 1t9 1l15 27l23 42q33 62 74 141q8 16 13 27q13 29 13 38v12q0 34 -50 128q-53 98 -88 110q-23 6 -68 18l-43 12
q-21 5 -24.5 6t-6.5 3l-8 4q-10 5 -12 7h-6q-21 0 -56 -63l-24 -44q-11 -20 -20 -20q-18 0 -19 18q-1 7 0 17q4 36 -25 42q-1 0 -53 6l-35 4q-17 2 -25 2q-4 0 -15 1l-46 2h-15zM269 177q0 16 57 86q24 30 69 78l113 -100v-25l-88 -87h-12q-45 9 -79 19q-21 5 -59 18v5
q-1 4 -1 6z" />
    <glyph glyph-name="q" unicode="q" horiz-adv-x="605" 
d="M382 65q-3 -5 -13 -31q-5 -12 -12 -32l-4 -32l-16 -105q-4 -29 -5 -38q0 -12 -1 -37l-1 -23q-1 -11 -1 -15h228v753q-57 0 -125 -15q-4 -1 -13 -3l-30 -7q-4 -1 -9 -9l-10 -31l-13 -13q-20 8 -58 58q-34 44 -54 44q-9 0 -59 -28q-22 -12 -46 -26l-44 -27q-18 -13 -51 -33
q-25 -21 -25 -25v-288l7 -7q7 -8 17 -18l21 -20q8 -9 17 -17l28 -25q20 -18 60 -53l12 -10h25l75 50q25 16 75 50q2 2 13 7zM156 252v7q1 4 2.5 7t10.5 12l19 19q10 11 32 30q18 13 42 24q6 2 8 1l100 -50v-100q0 -13 -67 -38t-84 -25q-15 0 -22 9q-1 1 -11 23q-6 12 -12 27
l-11 26q-5 12 -6 16v6q-1 4 -1 6z" />
    <glyph glyph-name="r" unicode="r" horiz-adv-x="494" 
d="M122 500q-47 0 -67 -11q-10 -5 -10 -14v-475h250q7 0 13 12v13l-6 12l-4 8q-2 4 -3 5q-17 48 -45 147q-6 25 -6 47q0 57 39 57h6q4 -1 6.5 -1.5t13.5 -5.5l24 -12q13 -8 37 -20h3q2 -1 4 -1q1 0 4 1h2q29 17 65 43q9 6 10 7.5t2.5 12l3.5 24.5l4 28q2 14 2 22t1 23t1 22
t-1 21.5t-1 21.5q-17 9 -50 26l-30 15q-10 5 -20 9l-2 1q-3 1 -4 1q-9 0 -57 -33q-20 -14 -37 -26l-25 -18q-17 -13 -50 -40q-9 -7 -12 -10q-15 7 -26 50q-10 38 -35 38z" />
    <glyph glyph-name="s" unicode="s" horiz-adv-x="569" 
d="M76 37q25 -4 76 -11q26 -4 55 -8l54 -7q26 -4 77 -11h4q3 0 9 -1h10h8h16q11 1 16 1q36 29 70 60q17 15 33 29q20 18 29 34q5 10 5 21v6l-6 12l-4 8q-2 4 -2 5q-3 7 -19 69q-7 23 -19 68q-7 32 -12 32h-200v56l7 2q7 2 55 10q34 3 102 10q12 1 39 9q9 4 9 6v88l-4 2
q-10 5 -33 10t-69 16l-47 11q-25 5 -47 10l-38 8q-17 3 -24 5h-25q-30 -17 -90 -50q-16 -9 -23 -12q-32 -18 -34 -19q-16 -13 -16 -34v-22q0 -5 6 -87l4 -53q2 -25 3 -35q10 -28 25 -38q49 -6 110 -19q19 -4 27 -6q15 -3 44 -17q6 -6 6 -14v-6q-10 -19 -12 -19h-204v-27
q0 -45 11 -71q6 -16 18 -21z" />
    <glyph glyph-name="t" unicode="t" horiz-adv-x="489" 
d="M111 87q27 -29 53 -59q32 -29 71 -29q27 0 108 21q31 8 51 16q39 14 42 26q0 -4 6 38q2 17 6 50q2 4 2 11v8h-114v200h125v137h-100l-19 19v127q-32 0 -69 -15l-70 -28l-36 -14q-16 -7 -19 -8q-8 -4 -11.5 -11t-7 -26t-6.5 -25q-1 -2 -5 -6l-7 -7q-17 -4 -60 -10
q-11 -2 -15 -2q-16 -51 -16 -150h116q-25 -127 -25 -225v-38z" />
    <glyph glyph-name="u" unicode="u" horiz-adv-x="659" 
d="M39 217q0 -37 33 -111q35 -81 69 -94q18 -7 60 -10q30 -3 67 -3q13 0 20 -1q16 -1 40 14q35 21 62 41q10 7 13 9l3 1q3 1 5 1q1 0 5 -2q12 -24 12 -37h150l13 12q0 22 3 56q3 48 4 57q2 51 6 108l7 111q5 86 5 93v15q0 23 -13 23h-206v-275l-5 -5q-9 -9 -26 -23l-13 -10
q-21 -16 -25 -12l-87 50l-1 10q-1 9 -1 15q0 38 26.5 117.5t26.5 116.5q0 26 -62 36q-38 6 -89 6h-9h-11q-7 -1 -11 -1h-7l-6 -18t-6 -20q-12 -52 -28 -130l-10 -48q-5 -22 -8 -38l-4 -21q0 -5 -1 -16t-1 -17z" />
    <glyph glyph-name="v" unicode="v" horiz-adv-x="629" 
d="M124 37q1 -6 10 -21.5t20 -15.5h7q12 0 96 9q36 3 109 11q51 5 58 5q1 0 25 6q8 2 25 6q24 64 50 163q4 15 13 48l17 58l16 60l25 93q4 14 4 16v37h-175q-9 0 -20 -27q-4 -9 -5 -10l-100 -300q-4 13 -11 40q-2 7 -2 10q-2 17 -7 60l-30 240q-5 14 -28 14h-9
q-41 0 -138 -27q-19 -5 -38 -12v-8q-1 -8 -1 -13q0 -27 26 -142q6 -27 13 -59l38 -181q7 -32 12 -60z" />
    <glyph glyph-name="w" unicode="w" horiz-adv-x="867" 
d="M43 475q0 -6 1 -20l2 -60q0 -6 1 -20q4 -37 11 -110l7 -77l15 -144q2 -30 4 -44h225q21 0 61 84q36 77 39 103q7 -16 20 -49q3 -9 5 -13q6 -37 25 -108q6 -17 13 -17h262l95 475h-170q-2 0 -8 -23q-2 -8 -4 -15l-7 -32q-6 -24 -12 -51l-11 -54q-5 -39 -21 -115
q-5 -14 -12 -23l-12 13l-50 287q0 1 -29 11q-24 8 -46 14q-17 4 -50 11q-9 2 -13 2h-14q-23 0 -40 -72q-9 -48 -28 -142q-8 -35 -15 -54q-12 -35 -28 -45l-18 126l-19 124q-5 20 -11 34l-2 4h-166z" />
    <glyph glyph-name="x" unicode="x" horiz-adv-x="651" 
d="M43 76q0 -20 14 -26q33 -14 101 -41q17 -7 24 -9q2 0 6 -1h6q20 0 69 75q43 67 56 101q24 -20 71 -101q43 -75 60 -75h4q2 1 3 1q32 22 80 51q13 7 20 11l32 16q19 12 19 28v4l-1 2q-2 2 -12 17q-4 7 -13 21q-24 28 -80 100q-14 18 -20 25q10 19 19 30q2 2 6 7q8 9 22 23
l90 90q0 1 1 3v3v4l-1 2q0 1 -12 13q-3 2 -69 55l-36 29q-16 13 -20 16q-8 8 -25 12h-13l-12 -12q-44 -66 -72 -111q-4 -7 -16 -27q-6 -14 -20 -40q-4 -7 -5 -10q-68 104 -100 175q-3 0 -9.5 1t-9.5 1q-32 0 -86 -22q-31 -13 -82 -42v-13q4 -10 12 -25q7 -8 25 -32l38 -49
q19 -26 37 -49l25 -32v-38l-125 -150v-4q-1 -5 -1 -7z" />
    <glyph glyph-name="y" unicode="y" horiz-adv-x="670" 
d="M144 -98v-127q0 -14 57 -46q54 -30 74 -30h10q6 1 9 1q8 6 30 22l90 68q12 9 30 22q35 26 43 50q3 11 7 25l76 288q38 143 74 287q2 4 2 13q0 16 -13.5 19.5t-26.5 5.5q-4 1 -76 11l-55 8q-28 4 -44 6h-7q-17 0 -24 -28q-6 -24 -6 -35q-6 -46 -19 -137q-5 -30 -8 -57
l-7 -49q-3 -22 -4 -32q-12 -38 -43 -38h-9q-29 0 -29 13v325h-246q0 -42 15 -112q7 -36 22 -106l32 -151q6 -35 21 -106q5 -13 25 -13h6q4 1 6 1l213 50q-34 -27 -46 -107q-6 -39 -8 -44q-7 -31 -21 -37q-37 13 -113 35q-20 5 -37 5z" />
    <glyph glyph-name="z" unicode="z" horiz-adv-x="582" 
d="M35 144q0 -21 11 -77q13 -67 27 -67h400q18 0 30 79q8 57 8 97h-6q-5 -1 -7 -1q-58 -10 -174 -31q-31 -6 -39 -7h-12q43 36 124 84q94 56 126 79q16 11 25 25l1 3v3v4l-1 2q-10 17 -31 52q-5 8 -7 11l-30 61q-6 11 -7 14q-10 18 -39 54q-9 8 -16 8h-8q-55 -9 -165 -26
q-33 -6 -61 -11l-74 -13q-33 -5 -36.5 -11t-7.5 -28l-4 -20q-3 -14 -4 -60l-1 -27q-1 -13 -1 -17q33 0 99 6.5t99 6.5h31q-14 -5 -25 -12q-16 -11 -66 -47l-133 -97q-18 -13 -26 -19v-18z" />
    <glyph glyph-name="bar" unicode="|" horiz-adv-x="456" 
d="M113 481h-96q0 -11 1 -34t1 -35q0 -8 2 -20l4 -24q5 -29 8 -32t36 -6q13 -1 38 -5q18 -5 18 -13v-312h219q2 1 6 5l7 7v13q-15 72 -44 217q-6 30 -9.5 54.5t-13.5 107.5q-8 75 -8 99v8q0 55 36 84q17 14 44 22q23 6 47 12q10 3 10 8v100q0 1 -19 6q-10 3 -31 7l-40 6
q-16 2 -47 6h-13q-28 -16 -78 -56t-78 -56v-169z" />
    <glyph glyph-name="Adieresis" unicode="&#xc4;" horiz-adv-x="740" 
d="M471 162v-166q138 0 219 16q14 3 14 30q0 2 -1 20l-75 663l-14 2q-32 4 -76 8l-35 2q-14 1 -47 3l-181 7q-70 3 -72 3h-29q-28 0 -37 -20q-4 -6 -9 -43l-99 -675h261v135l150 28zM276 592q21 0 71 -17q55 -19 96 -40q48 -26 48 -48v-6q-1 -4 -1 -6l-14 -67
q-11 -42 -26 -61q-27 -36 -122 -36q-6 0 -15 1h-10l-13 25q0 -14 -6 70q-2 28 -3 57l-3 48q0 11 -1 32v33q-1 11 -1 15zM569 880q0 -22 -20 -46q-22 -27 -40 -27q-52 0 -79 13q-12 5 -12 16v100q0 2 12 14q3 3 9 8.5t9 8.5q7 3 20 9h10q36 -9 51 -17q26 -14 35 -38
q5 -16 5 -41zM212 883q0 -21 20 -46q22 -28 40 -28q53 0 79 13q12 6 12 17v100q-1 1 -11 13q-7 6 -19 17q-5 5 -20 10h-10q-36 -9 -51 -17q-26 -14 -34 -38q-6 -16 -6 -41z" />
    <glyph glyph-name="Odieresis" unicode="&#xd6;" horiz-adv-x="789" 
d="M27 462q17 -77 53 -230l22 -95q5 -19 8 -27q5 -14 14 -24q6 -8 15 -11l240 -80l260 130q18 9 50 83t53 143q23 77 23 100v7l-1 4l-187 238l-25 12q4 0 -54 9q-24 3 -54 7l-119 16q-28 3 -48 6h-13q-69 -62 -164 -179l-48 -59q-20 -25 -25 -37l-1 -2q-1 -3 -1 -4t1 -3.5
t1 -3.5zM252 462q8 8 49 40q6 5 13 10q51 39 81 39h10q6 -1 9 -1q20 -17 60 -50q6 -5 15 -13q25 -22 25 -25v-175q0 -2 -19 -31q-10 -15 -31 -44q-15 -18 -25 -25h-2q-3 -1 -4 -1h-3q-2 1 -3 1q-6 4 -22 13l-68 38q-12 7 -23 12q-24 11 -32 19q-15 12 -18 31q0 5 -1 20
l-8 91q-3 36 -3 39v12zM584 878q0 -22 -20 -46q-22 -27 -40 -27q-52 0 -79 13q-12 5 -12 16v100q0 2 12 14q3 3 9 8.5t9 8.5q7 3 20 9h10q36 -9 51 -17q26 -14 35 -38q5 -16 5 -41zM227 881q0 -21 20 -46q22 -28 40 -28q53 0 79 13q12 6 12 17v100q-1 1 -11 13q-7 6 -19 17
q-5 5 -20 10h-10q-36 -9 -51 -17q-26 -14 -34 -38q-6 -16 -6 -41z" />
    <glyph glyph-name="Udieresis" unicode="&#xdc;" horiz-adv-x="752" 
d="M28 175l9 -9l66 -66q10 -10 90 -80l23 -20h21q11 0 32 -1h32h48h32q21 1 32 1h15q10 0 26 2l60 8q12 1 14 2l150 125q2 2 7 35q2 14 4 29l2 24q0 12 6 104q2 41 5 92l10 193q4 79 4 73v15q0 23 -18 23h-7l-52 -10q-32 -6 -62 -12l-52 -10q-21 -5 -22 -6l-19 -12v-425
q0 -6 -18 -13q-3 -1 -53 -20l-29 -11q-14 -5 -18 -6h-7q-5 -1 -7 -1q-29 0 -47 57q-16 46 -16 79q0 70 22.5 208t22.5 208q-1 0 -18 -1q-1 0 -25 -6q-10 -2 -25 -7q-9 -1 -30 -4l-45 -8q-25 -5 -75 -13q-22 -14 -25 -37zM600 882q0 -22 -20 -46q-22 -27 -40 -27
q-52 0 -79 13q-12 5 -12 16v100q0 2 12 14q3 3 9 8.5t9 8.5q7 3 20 9h10q36 -9 51 -17q26 -14 35 -38q5 -16 5 -41zM243 885q0 -21 20 -46q22 -28 40 -28q53 0 79 13q12 6 12 17v100q-1 1 -11 13q-7 6 -19 17q-5 5 -20 10h-10q-36 -9 -51 -17q-26 -14 -34 -38q-6 -16 -6 -41
z" />
    <glyph glyph-name="adieresis" unicode="&#xe4;" horiz-adv-x="559" 
d="M26 137q0 -16 38 -75.5t50 -61.5q29 -1 36 -1q65 0 176 51l3 1h4q18 0 31 -39h112l13 13q2 2 8 58q2 25 5 56l5 63q2 37 7 110q0 4 1 18l1 33v35v46q0 18 -1 45q-1 9 -1 11l-13 12q-4 2 -27 7l-65 14q-38 8 -78 16l-67 13q-2 0 -6.5 1t-6.5 1t-7 -1l-5 -1q-9 -2 -30 -9
l-45 -15q-25 -8 -75 -26q-17 -2 -14 -27v-9v-12q0 -45 14 -45h212q9 0 13 -16q1 -7 1 -14v-8q0 -27 -12.5 -30.5t-38.5 -10.5l-113 -30q-11 -3 -37 -10q-47 -13 -67 -60q-10 -24 -21 -90v-13zM176 187q19 24 54 48q42 29 65 29q2 0 4 -1l2 -1q6 -4 26 -24q9 -9 24 -26
q-13 -17 -40 -50q-7 -9 -10 -12q-7 -11 -24 -25q-5 -1 -13 -1q-21 0 -49 24q-15 11 -39 39zM504 713q0 -22 -20 -46q-22 -27 -40 -27q-52 0 -79 13q-12 5 -12 16v100q0 2 12 14q3 3 9 8.5t9 8.5q7 3 20 9h10q36 -9 51 -17q26 -14 35 -38q5 -16 5 -41zM147 716q0 -21 20 -46
q22 -28 40 -28q53 0 79 13q12 6 12 17v100q-1 1 -11 13q-7 6 -19 17q-5 5 -20 10h-10q-36 -9 -51 -17q-26 -14 -34 -38q-6 -16 -6 -41z" />
    <glyph glyph-name="odieresis" unicode="&#xf6;" horiz-adv-x="655" 
d="M29 192q0 -50 45 -74q15 -8 31 -18q37 -24 113 -72l25 -16q1 -1 14 -6l11 -6h12q5 1 20 6l33 11q20 6 60 20q6 3 21 9l30 11q17 6 49 18q28 12 46 36q7 9 29 51q8 15 18 34l20 41q24 48 24 50v13q0 5 -34 73q-17 34 -53 102q-19 33 -82 57q-32 9 -93 30q-18 8 -54 22
q-10 3 -15 3h-6q-9 -4 -30 -14l-45 -23q-24 -12 -45 -23l-62 -31q-49 -25 -56 -71l-17 -114q-9 -60 -9 -119zM180 312l29 32q36 39 78 69q19 13 31 13q18 0 37 -26q13 -17 38 -50l23 -30q10 -14 14 -20q0 -2 1 -6.5t1 -6.5t-1 -6t-1 -6q-9 -25 -25 -75q-10 -20 -20 -33
q-4 -5 -5 -5h-150q-2 0 -12 25q0 -1 -6 17l-4 12q-2 7 -7 26l-8 26q-5 15 -13 44zM510 718q0 -22 -20 -46q-22 -27 -40 -27q-52 0 -79 13q-12 5 -12 16v100q0 2 12 14q3 3 9 8.5t9 8.5q7 3 20 9h10q36 -9 51 -17q26 -14 35 -38q5 -16 5 -41zM153 721q0 -21 20 -46
q22 -28 40 -28q53 0 79 13q12 6 12 17v100q-1 1 -11 13q-7 6 -19 17q-5 5 -20 10h-10q-36 -9 -51 -17q-26 -14 -34 -38q-6 -16 -6 -41z" />
    <glyph glyph-name="udieresis" unicode="&#xfc;" horiz-adv-x="643" 
d="M28 217q0 -37 33 -111q35 -81 69 -94q18 -7 60 -10q30 -3 67 -3q13 0 20 -1q16 -1 40 14q35 21 62 41q10 7 13 9l3 1q3 1 5 1q1 0 3 -1l2 -1q12 -24 12 -37h150l13 12q0 22 3 56q3 48 4 57q2 51 6 108l7 111q5 86 5 93v15q0 23 -13 23h-206v-275l-5 -5q-9 -9 -26 -23
l-13 -10q-21 -16 -25 -12l-87 50l-1 10q-1 9 -1 15q0 38 26.5 117.5t26.5 116.5q0 26 -62 36q-38 6 -89 6h-9h-11q-7 -1 -11 -1h-7l-6 -18t-6 -20q-12 -52 -28 -130l-10 -48q-5 -22 -8 -38l-4 -21q0 -5 -1 -16t-1 -17zM542 711q0 -22 -20 -46q-22 -27 -40 -27q-52 0 -79 13
q-12 5 -12 16v100q0 2 12 14q3 3 9 8.5t9 8.5q7 3 20 9h10q36 -9 51 -17q26 -14 35 -38q5 -16 5 -41zM185 714q0 -21 20 -46q22 -28 40 -28q53 0 79 13q12 6 12 17v100q-1 1 -11 13q-7 6 -19 17q-5 5 -20 10h-10q-36 -9 -51 -17q-26 -14 -34 -38q-6 -16 -6 -41z" />
    <glyph glyph-name="germandbls" unicode="&#xdf;" horiz-adv-x="634" 
d="M322 125q0 17 32 49l58 54q-3 2 -11 9t-107 126l1 3q11 12 23 24q12 23 42 74q13 23 42 77q-1 0 -2 9t-4 12q-11 12 -23 23q-10 0 -23 5q-19 7 -21 8q-21 -14 -35 -37q-8 -13 -15 -51l-12 -68q-4 -21 -5 -75v-92q5 -73 20 -225q4 -8 8 -23l-1 -13l-8 -7q-5 -5 -7 -5
l-200 1l22 310q0 8 -17 13q-13 2 -38 5q-33 4 -35.5 7t-4.5 32l-2 24v20q3 23 4 56q1 11 1 13l96 -1l16 169q35 19 95 68q15 12 38 23q39 18 41 19h13q23 -3 69 -10h2h38q21 0 35 -15q15 -19 39.5 -49t45.5 -57q25 -34 25 -54q0 -2 -1 -7v-7q-1 -2 -6 -13q0 -9 -5 -26
l-16 -28q-14 -25 -43 -72q-15 -23 -15 -38q0 -7 10.5 -18t10.5 -13q0 -1 -1 -2q16 -14 48 -40q27 -15 42 -31q0 -1 7 -15l7 -16q8 -31 5 -48l-12 -58l-10 -54q-5 -24 -34 -56l-144 -43h-7q-19 0 -39 59q-2 7 -14 21.5t-13 22.5q-5 22 -5 31z" />
    <glyph glyph-name="dieresis" unicode="&#xa8;" horiz-adv-x="400" 
d="M387 547q0 -22 -20 -46q-22 -27 -40 -27q-52 0 -79 13q-12 5 -12 16v100q0 2 12 14q3 3 9 8.5t9 8.5q7 3 20 9h10q36 -9 51 -17q26 -14 35 -38q5 -16 5 -41zM30 550q0 -21 20 -46q22 -28 40 -28q53 0 79 13q12 6 12 17v100q-1 1 -11 13q-7 6 -19 17q-5 5 -20 10h-10
q-36 -9 -51 -17q-26 -14 -34 -38q-6 -16 -6 -41z" />
    <glyph glyph-name="currency" unicode="&#xa4;" horiz-adv-x="693" 
d="M29 425q8 -33 30 -112l19 -68q9 -42 35 -115q5 -11 21 -21q13 -9 26 -17q4 -4 6 -5l35 -17q25 -13 53 -27l52 -26q25 -13 35 -17h25q71 12 161 30l39 7q79 17 87 132q2 30 2 57q0 24 -11 46q-13 28 -34 28q-32 0 -62 -45q-17 -27 -32 -68h-12h-19q-12 -1 -18 -1h-13h-32
q-44 -2 -78 9q-19 5 -28 17q-2 2 2 9.5t4 9.5h132l25 31v107q-36 0 -103.5 -22.5t-103.5 -22.5q-19 0 -25.5 6.5t-6.5 25.5q0 28 14 31q116 -4 237 13v10q0 5 1 15v15v10q0 42 -4 58q-10 31 -41 31q-3 0 -9 -1t-9 -1q-26 -5 -102 -30q-19 -6 -23 -7h-13q67 77 145 77
q31 0 81.5 -33t79.5 -33h10q6 1 9 1q13 44 35 134q4 23 4 43v7l-1 4q-8 8 -25 12q-28 4 -81 11q-15 2 -19 2l-63 11q-33 5 -99 16q-21 3 -63 10h-25q-8 -6 -32 -30l-19 -19q-7 -7 -12 -13q-22 -26 -88 -111l-67 -87q-13 -17 -31 -46q-3 -8 -3 -19q0 -2 1 -6t1 -6z" />
    <glyph glyph-name="currency" unicode="&#x20ac;" horiz-adv-x="693" 
d="M29 425q8 -33 30 -112l19 -68q9 -42 35 -115q5 -11 21 -21q13 -9 26 -17q4 -4 6 -5l35 -17q25 -13 53 -27l52 -26q25 -13 35 -17h25q71 12 161 30l39 7q79 17 87 132q2 30 2 57q0 24 -11 46q-13 28 -34 28q-32 0 -62 -45q-17 -27 -32 -68h-12h-19q-12 -1 -18 -1h-13h-32
q-44 -2 -78 9q-19 5 -28 17q-2 2 2 9.5t4 9.5h132l25 31v107q-36 0 -103.5 -22.5t-103.5 -22.5q-19 0 -25.5 6.5t-6.5 25.5q0 28 14 31q116 -4 237 13v10q0 5 1 15v15v10q0 42 -4 58q-10 31 -41 31q-3 0 -9 -1t-9 -1q-26 -5 -102 -30q-19 -6 -23 -7h-13q67 77 145 77
q31 0 81.5 -33t79.5 -33h10q6 1 9 1q13 44 35 134q4 23 4 43v7l-1 4q-8 8 -25 12q-28 4 -81 11q-15 2 -19 2l-63 11q-33 5 -99 16q-21 3 -63 10h-25q-8 -6 -32 -30l-19 -19q-7 -7 -12 -13q-22 -26 -88 -111l-67 -87q-13 -17 -31 -46q-3 -8 -3 -19q0 -2 1 -6t1 -6z" />
  </font>
</defs>
</svg>
